# xmcd
#
# Track frame offsets: 
#        150
#        16582
#        40109
#        60041
#        80190
#        100549
#        128757
#        143530
#        167200
#        184779
#        204164
#        225494
#
# Disc length: 3257 seconds
#
# Revision: 1
# Processed by: cddbd v1.5.2PL0 Copyright (c) Steve Scherf et al.
# Submitted via: ExactAudioCopyFreeDBPlugin 1.0
#
DISCID=840cb70c
DTITLE=Walkin' Cane Band - Radio Cafe
DYEAR=2001
DGENRE=Blues
TTITLE0=Hush Mouth Money
TTITLE1=Angel Blues
TTITLE2='Till I Fell
TTITLE3=Radio Cafe
TTITLE4=Crescent City Lights
TTITLE5=Soul Searchin'
TTITLE6=Check-Up (From the Neck Up)
TTITLE7=Love Meets The Blues
TTITLE8=Hard To Please
TTITLE9=One Step (Ahead of the Landlord)
TTITLE10=U.S. Crawl
TTITLE11=Uptight
EXTD=
EXTT0=
EXTT1=
EXTT2=
EXTT3=
EXTT4=
EXTT5=
EXTT6=
EXTT7=
EXTT8=
EXTT9=
EXTT10=
EXTT11=
PLAYORDER=
